<svg xmlns="http://www.w3.org/2000/svg" width="892" height="799" viewBox="0 0 892 799">
  <defs>
    <style>
      .cls-1 {
        fill: none;
      }

      .cls-2, .cls-3, .cls-4, .cls-5, .cls-6 {
        stroke: none;
      }

      .cls-3 {
        fill: #00f755;
      }

      .cls-4 {
        fill: #01f7ee;
      }

      .cls-5 {
        fill: #b3f403;
      }

      .cls-6 {
        fill: #f44d03;
      }
    </style>
  </defs>
  <g id="Group_1" data-name="Group 1" transform="translate(-514 -40)">
    <g id="Polygon_1" data-name="Polygon 1" class="cls-1" transform="translate(514 40)">
      <path class="cls-2" d="M446,0,892,799H0Z"/>
      <path class="cls-3" d="M 445.9999694824219 16.41351318359375 L 13.6275634765625 791 L 878.3723754882813 791 L 445.9999694824219 16.41351318359375 M 445.9999694824219 0 L 892 799 L -6.103515625e-05 799 L 445.9999694824219 0 Z"/>
    </g>
    <g id="Polygon_2" data-name="Polygon 2" class="cls-1" transform="translate(567 105)">
      <path class="cls-2" d="M392.5,0,785,703H0Z"/>
      <path class="cls-4" d="M 392.4999694824219 16.41058349609375 L 13.62890625 695 L 771.3710327148438 695 L 392.4999694824219 16.41058349609375 M 392.4999694824219 0 L 785 703 L -6.103515625e-05 703 L 392.4999694824219 0 Z"/>
    </g>
    <g id="Polygon_3" data-name="Polygon 3" class="cls-1" transform="translate(621 173)">
      <path class="cls-2" d="M339,0,678,607H0Z"/>
      <path class="cls-5" d="M 338.9999694824219 16.406982421875 L 13.630859375 599 L 664.3690795898438 599 L 338.9999694824219 16.406982421875 M 338.9999694824219 6.103515625e-05 L 678 607 L -6.103515625e-05 607 L 338.9999694824219 6.103515625e-05 Z"/>
    </g>
    <g id="Polygon_4" data-name="Polygon 4" class="cls-1" transform="translate(683 246)">
      <path class="cls-2" d="M277.5,0,555,497H0Z"/>
      <path class="cls-6" d="M 277.4999694824219 16.40997314453125 L 13.6292724609375 489.0000305175781 L 541.3705444335938 489.0000305175781 L 277.4999694824219 16.40997314453125 M 277.4999694824219 -6.103515625e-05 L 554.9998779296875 497.0000305175781 L -6.103515625e-05 497.0000305175781 L 277.4999694824219 -6.103515625e-05 Z"/>
    </g>
  </g>
</svg>
