<svg xmlns="http://www.w3.org/2000/svg" width="600.919" height="122.628" viewBox="0 0 600.919 122.628">
  <g id="Group_1" data-name="Group 1" transform="translate(-653.939 -431.726)">
    <path id="Path_1" data-name="Path 1" d="M892.051,501.757l-6.559,52.455h-7.08c4.016-31.494,7.995-62.7,11.974-93.909l1.56-.134c4.431,19.934,8.861,39.867,13.632,61.331,5.607-30.862,10.958-60.311,16.308-89.76l1.189-.014c3.372,40.439,6.744,80.877,10.14,121.606-1.551.206-2.647.429-3.75.475a31.9,31.9,0,0,1-3.312-.227c-1.879-23.008-3.745-45.863-5.612-68.717l-1.112-.233L906.67,552.858l-1.742.145q-5.82-25.644-11.641-51.288Z"/>
    <path id="Path_2" data-name="Path 2" d="M701.284,552.516h-6.438v-94.35h7.175V491.72h16.036V458.491h7.286v93.73h-7.37V502.684H701.284Z"/>
    <path id="Path_3" data-name="Path 3" d="M863.658,552.53h-7.12c-2.074-9.456-4.165-18.987-6.332-28.861H837.141c-1.948,9.625-3.855,19.054-5.819,28.761h-7.861c6.647-31.823,13.246-63.421,19.846-95.018l1.416-.023C850.99,488.877,857.257,520.364,863.658,552.53Zm-15.644-40.078c-1.28-7.08-2.484-13.74-3.687-20.4l-1.26.114c-1.378,6.7-2.756,13.4-4.172,20.287Z"/>
    <path id="Path_4" data-name="Path 4" d="M1188.358,552.183V458.1h19.907v9.324H1195.91v24.814h15.831v9.764h-16.348V543.9h16.423v8.287Z"/>
    <path id="Path_5" data-name="Path 5" d="M748.342,492.045H763.6V502.2H748.952v40.448h14.626v9.514H741.486V458.44h16.128v8.911l-9.272.544Z"/>
    <path id="Path_6" data-name="Path 6" d="M1110.94,467.825v24.833h16.2v9.585h-16.156v41.4h15.491v8.867h-22.8V458.234h19.723v9.591Z"/>
    <path id="Path_7" data-name="Path 7" d="M958.9,552.835h-6.609V459.456c12.245-4.043,26.125,2.865,30.028,15.021,4.238,13.2-3.725,23.513-23.419,29.826Zm-.019-56.023c9.139,2.084,17.685-8.329,17.463-15.777-.315-10.523-6.72-16.694-17.463-15.84Z"/>
    <path id="Path_8" data-name="Path 8" d="M1081.412,467.709h-12.684v24.349H1084.6V502.25H1068.4v49.961h-6.835V458.465h19.849Z"/>
    <path id="Path_9" data-name="Path 9" d="M1251.218,466.1l-6.393,2.9c-3.046-3.974-6.669-6.25-11.514-3.4-4.164,2.447-6.393,7.116-3.993,12.652,3.05,7.032,7.739,13.349,11.687,19.995,4.037,6.8,8.828,13.284,11.85,20.509,4,9.57,1.69,19.111-4.134,27.434-2.137,3.053-5.748,5.074-9.392,8.166-1.274-3.437-2.057-5.55-2.8-7.556,10.553-8.976,12.956-19.386,6.339-31.577-3.773-6.951-8.926-13.174-13.649-19.584-5.149-6.989-9.059-14.287-8.243-23.39.668-7.457,5.7-13.708,12.454-15.042C1240.876,455.735,1247.45,458.834,1251.218,466.1Z"/>
    <path id="Path_10" data-name="Path 10" d="M1162.13,552.579h-7.991V467.267l-8.808-.6c.133-2.757.255-5.306.39-8.135h24.561v8.016l-8.152.545Z"/>
    <path id="Path_11" data-name="Path 11" d="M670.735,468.872v84.139h-6.872V468.88l-9.924-.626v-9.781h27.346v9.679Z"/>
    <path id="Path_12" data-name="Path 12" d="M1004.3,543.648h12.532v9.087H996.694v-94.69h7.611Z"/>
    <path id="Path_13" data-name="Path 13" d="M1040.647,552.595h-6.7V458.124h6.7Z"/>
  </g>
</svg>
